<?xml version="1.0" encoding="utf-8"?>
<!-- Generator: Adobe Illustrator 22.0.0, SVG Export Plug-In . SVG Version: 6.00 Build 0)  -->
<svg version="1.1" id="Слой_1" xmlns="http://www.w3.org/2000/svg" xmlns:xlink="http://www.w3.org/1999/xlink" x="0px" y="0px"
	 viewBox="0 0 512 512" style="enable-background:new 0 0 512 512;" xml:space="preserve">
<style type="text/css">
	.st0{fill:#C9C9C9;}
</style>
<g id="XMLID_1_">
	<g>
		<path class="st0" d="M447.8,88.1v159.5c0,4.4-3.6,8-8,8c-5.7,0-15.2,3.8-22.3,10.9c-3.3,3.3-8.3,10.7-13.7,18.5
			c-7.9,11.6-16.8,24.6-25.5,32.7c-2.5,2.4-6,5.5-10.1,9.1c-17.3,15.3-49.5,43.8-57,60.4c-5,11.1-8.9,29.6-12,42
			c-3.9,15.2-2.8,22.8-6.2,26.8c-4.6,5.5-16.4,7.9-27.9,7.9s-20.8-9.2-26.3-19.1c-11.7-21-12.8-57-2.7-90.2
			c5-16.6,10.5-27.7,14.5-35.8c3-6.1,5.4-10.9,4.9-13c-1.2-4.9-3.7-6.2-16.4-4.9c-2.7,0.2-11.5,1.6-21.6,3.2
			c-24.7,3.9-62.2,9.7-80.2,10.8c-26.1,1.5-35.9,0.1-46.4-11.7c-8.4-9.4-13-23.9-8.2-37.8c2-5.8,0.3-14-4.1-18.3
			c-4.9-4.8-9.7-11.6-9.7-23.2c0-13.4,2.4-20.7,5.8-25.7c2-2.9,2.7-6.5,2-10l-0.2-1.1c-0.5-1.1-1-2.2-1.6-3.4
			c-5.2-6.3-10.9-15.4-10.9-29.1c0-15.3,9.2-25.1,16.7-31.4c2.3-1.9,3.5-4.9,2.9-8.2c-0.1-0.9-0.4-1.8-0.8-2.6
			c-2.7-6.1-4.6-14-0.5-23.7c11-26.2,44.2-33.4,75.2-37c16.7-1.9,36.2-3.9,56.6-3.9c38.4,0,80.2,4.1,112.6,8.1
			c21.5,2.6,34.2,7.4,46.4,12.1c15.9,6,30.9,11.8,66.4,11.8C444.1,79.8,447.8,83.5,447.8,88.1z"/>
	</g>
	<g>
	</g>
</g>
</svg>
